<svg viewBox="0 0 40 40" xmlns="http://www.w3.org/2000/svg">
  <rect width="40" height="40" fill="#FBF7EC"/>
  <circle cx="20" cy="20" r="18.5" stroke="#8A6423" stroke-width="1.6" fill="none"/>
  <circle cx="20" cy="20" r="14.5" stroke="#8A6423" stroke-width="0.9" fill="none"/>
  <line x1="36.60" y1="20.00" x2="38.20" y2="20.00" stroke="#8A6423" stroke-width="0.9"/>
  <line x1="36.03" y1="24.30" x2="37.58" y2="24.71" stroke="#8A6423" stroke-width="0.9"/>
  <line x1="34.38" y1="28.30" x2="35.76" y2="29.10" stroke="#8A6423" stroke-width="0.9"/>
  <line x1="31.74" y1="31.74" x2="32.87" y2="32.87" stroke="#8A6423" stroke-width="0.9"/>
  <line x1="28.30" y1="34.38" x2="29.10" y2="35.76" stroke="#8A6423" stroke-width="0.9"/>
  <line x1="24.30" y1="36.03" x2="24.71" y2="37.58" stroke="#8A6423" stroke-width="0.9"/>
  <line x1="20.00" y1="36.60" x2="20.00" y2="38.20" stroke="#8A6423" stroke-width="0.9"/>
  <line x1="15.70" y1="36.03" x2="15.29" y2="37.58" stroke="#8A6423" stroke-width="0.9"/>
  <line x1="11.70" y1="34.38" x2="10.90" y2="35.76" stroke="#8A6423" stroke-width="0.9"/>
  <line x1="8.26" y1="31.74" x2="7.13" y2="32.87" stroke="#8A6423" stroke-width="0.9"/>
  <line x1="5.62" y1="28.30" x2="4.24" y2="29.10" stroke="#8A6423" stroke-width="0.9"/>
  <line x1="3.97" y1="24.30" x2="2.42" y2="24.71" stroke="#8A6423" stroke-width="0.9"/>
  <line x1="3.40" y1="20.00" x2="1.80" y2="20.00" stroke="#8A6423" stroke-width="0.9"/>
  <line x1="3.97" y1="15.70" x2="2.42" y2="15.29" stroke="#8A6423" stroke-width="0.9"/>
  <line x1="5.62" y1="11.70" x2="4.24" y2="10.90" stroke="#8A6423" stroke-width="0.9"/>
  <line x1="8.26" y1="8.26" x2="7.13" y2="7.13" stroke="#8A6423" stroke-width="0.9"/>
  <line x1="11.70" y1="5.62" x2="10.90" y2="4.24" stroke="#8A6423" stroke-width="0.9"/>
  <line x1="15.70" y1="3.97" x2="15.29" y2="2.42" stroke="#8A6423" stroke-width="0.9"/>
  <line x1="20.00" y1="3.40" x2="20.00" y2="1.80" stroke="#8A6423" stroke-width="0.9"/>
  <line x1="24.30" y1="3.97" x2="24.71" y2="2.42" stroke="#8A6423" stroke-width="0.9"/>
  <line x1="28.30" y1="5.62" x2="29.10" y2="4.24" stroke="#8A6423" stroke-width="0.9"/>
  <line x1="31.74" y1="8.26" x2="32.87" y2="7.13" stroke="#8A6423" stroke-width="0.9"/>
  <line x1="34.38" y1="11.70" x2="35.76" y2="10.90" stroke="#8A6423" stroke-width="0.9"/>
  <line x1="36.03" y1="15.70" x2="37.58" y2="15.29" stroke="#8A6423" stroke-width="0.9"/>
  <path d="M13 13L27 27M27 13L13 27" stroke="#8A6423" stroke-width="2.4" stroke-linecap="round"/>
</svg>
